<?xml version="1.0" encoding="UTF-8"?>
<svg width="64px" height="72px" viewBox="0 0 64 72" version="1.1" xmlns="http://www.w3.org/2000/svg" xmlns:xlink="http://www.w3.org/1999/xlink">
    <!-- Generator: Sketch 57.1 (83088) - https://sketch.com -->
    <title>Group 12</title>
    <desc>Created with Sketch.</desc>
    <g id="Page-1" stroke="none" stroke-width="1" fill="none" fill-rule="evenodd">
        <g id="Group-12" transform="translate(-4.000000, 0.000000)">
            <polygon id="Polygon-Copy-3" fill="#FFFFFF" points="36 0 67.1769145 18 67.1769145 54 36 72 4.82308546 54 4.82308546 18"></polygon>
            <path d="M44.8333333,45 C45.4781889,45 46,44.5527333 46,44 C46,43.4472667 45.4781889,43 44.8333333,43 L40.1666667,43 C39.5218111,43 39,43.4472667 39,44 C39,44.5527333 39.5218111,45 40.1666667,45 L44.8333333,45 Z" id="Path" fill="#FE7A6C" fill-rule="nonzero"></path>
            <path d="M24.1666667,47 C23.5218111,47 23,47.4472667 23,48 C23,48.5527333 23.5218111,49 24.1666667,49 L28.8333333,49 C29.4781889,49 30,48.5527333 30,48 C30,47.4472667 29.4781889,47 28.8333333,47 L24.1666667,47 Z" id="Path" fill="#FE7A6C" fill-rule="nonzero"></path>
            <path d="M37,44 C37,43.4472667 36.4781889,43 35.8333333,43 L24.1666667,43 C23.5218111,43 23,43.4472667 23,44 C23,44.5527333 23.5218111,45 24.1666667,45 L35.8333333,45 C36.4781889,45 37,44.5527333 37,44 Z" id="Path" fill="#FE7A6C" fill-rule="nonzero"></path>
            <path d="M51.5614618,51.6666667 L49.269103,51.6666667 C48.6355714,51.6666667 48.0465116,52.1884778 48.0465116,52.8333333 C48.0465116,53.4781889 48.6355714,54 49.269103,54 L51.5614618,54 C53.4575482,54 55,52.4299778 55,50.5 C55,48.5700222 53.4575482,47 51.5614618,47 L33.1461794,47 C32.5126478,47 32,47.5218111 32,48.1666667 C32,48.8115222 32.5126478,49.3333333 33.1461794,49.3333333 L51.5614618,49.3333333 C52.1938472,49.3333333 52.7076412,49.8563111 52.7076412,50.5 C52.7076412,51.1436889 52.1938472,51.6666667 51.5614618,51.6666667 Z" id="Path" fill="#FE7A6C" fill-rule="nonzero"></path>
            <path d="M37.1653453,27.78785 C36.5842199,27.5978 35.9750895,27.5 35.3580563,27.5 C32.5785678,27.5 30.2532225,29.436875 29.7193606,32.001125 C27.0556522,31.93295 25,33.9797 25,36.5 C25,38.981825 27.0646292,41 29.6035806,41 L50.3964194,41 C52.9353708,41 55,38.981825 55,36.5 C55,34.793825 54.0041688,33.262325 52.5093862,32.503175 C52.6352941,31.95605 52.6982097,31.4111 52.6982097,30.875 C52.6982097,26.533175 49.0069821,23 44.5652174,23 C41.2800256,23 38.4072379,24.912725 37.1653453,27.78785 Z" id="Path" fill="#FE7A6C" fill-rule="nonzero"></path>
            <path d="M20.7342294,36 L23.062539,36 C23.062539,32.752425 25.3157994,30.109125 28.424015,29.42355 C29.7121135,26.638575 32.6122559,24.75 35.8682416,24.75 C36.0660703,24.75 36.263899,24.7566 36.4605635,24.77085 C37.7782315,22.8423 39.7428591,21.43995 42,20.74515 C40.5045268,19.0782 38.3247634,18 35.8682416,18 C32.5452005,18 29.639315,19.912725 28.3831144,22.78785 C27.7952938,22.5978 27.1791455,22.5 26.5550033,22.5 C23.7434919,22.5 21.391356,24.436875 20.8513434,27.001125 C18.156946,26.93295 16,28.9797 16,31.5 C16,33.981825 18.1660264,36 20.7342294,36 Z" id="Path" fill="#FE7A6C" fill-rule="nonzero"></path>
        </g>
    </g>
</svg>