<?xml version="1.0" encoding="UTF-8"?>
<svg width="63px" height="72px" viewBox="0 0 63 72" version="1.1" xmlns="http://www.w3.org/2000/svg" xmlns:xlink="http://www.w3.org/1999/xlink">
    <!-- Generator: Sketch 57.1 (83088) - https://sketch.com -->
    <title>Group 8</title>
    <desc>Created with Sketch.</desc>
    <g id="Page-1" stroke="none" stroke-width="1" fill="none" fill-rule="evenodd">
        <g id="Group-8" transform="translate(-4.750000, 0.000000)">
            <polygon id="Polygon-Copy-4" fill="#FFFFFF" points="36 0 67.1769145 18 67.1769145 54 36 72 4.82308546 54 4.82308546 18"></polygon>
            <g id="017-winter-copy-3" transform="translate(16.000000, 18.000000)" fill="#76A3EA" fill-rule="nonzero">
                <path d="M28.8333333,27 C29.4781889,27 30,26.5527333 30,26 C30,25.4472667 29.4781889,25 28.8333333,25 L24.1666667,25 C23.5218111,25 23,25.4472667 23,26 C23,26.5527333 23.5218111,27 24.1666667,27 L28.8333333,27 Z" id="Path"></path>
                <path d="M8.16666667,29 C7.52181111,29 7,29.4472667 7,30 C7,30.5527333 7.52181111,31 8.16666667,31 L12.8333333,31 C13.4781889,31 14,30.5527333 14,30 C14,29.4472667 13.4781889,29 12.8333333,29 L8.16666667,29 Z" id="Path"></path>
                <path d="M21,26 C21,25.4472667 20.4781889,25 19.8333333,25 L8.16666667,25 C7.52181111,25 7,25.4472667 7,26 C7,26.5527333 7.52181111,27 8.16666667,27 L19.8333333,27 C20.4781889,27 21,26.5527333 21,26 Z" id="Path"></path>
                <path d="M35.5614618,33.6666667 L33.269103,33.6666667 C32.6355714,33.6666667 32.0465116,34.1884778 32.0465116,34.8333333 C32.0465116,35.4781889 32.6355714,36 33.269103,36 L35.5614618,36 C37.4575482,36 39,34.4299778 39,32.5 C39,30.5700222 37.4575482,29 35.5614618,29 L17.1461794,29 C16.5126478,29 16,29.5218111 16,30.1666667 C16,30.8115222 16.5126478,31.3333333 17.1461794,31.3333333 L35.5614618,31.3333333 C36.1938472,31.3333333 36.7076412,31.8563111 36.7076412,32.5 C36.7076412,33.1436889 36.1938472,33.6666667 35.5614618,33.6666667 Z" id="Path"></path>
                <path d="M21.1653453,9.78785 C20.5842199,9.5978 19.9750895,9.5 19.3580563,9.5 C16.5785678,9.5 14.2532225,11.436875 13.7193606,14.001125 C11.0556522,13.93295 9,15.9797 9,18.5 C9,20.981825 11.0646292,23 13.6035806,23 L34.3964194,23 C36.9353708,23 39,20.981825 39,18.5 C39,16.793825 38.0041688,15.262325 36.5093862,14.503175 C36.6352941,13.95605 36.6982097,13.4111 36.6982097,12.875 C36.6982097,8.533175 33.0069821,5 28.5652174,5 C25.2800256,5 22.4072379,6.912725 21.1653453,9.78785 Z" id="Path"></path>
                <path d="M4.73422943,18 L7.06253899,18 C7.06253899,14.752425 9.31579937,12.109125 12.424015,11.42355 C13.7121135,8.638575 16.6122559,6.75 19.8682416,6.75 C20.0660703,6.75 20.263899,6.7566 20.4605635,6.77085 C21.7782315,4.8423 23.7428591,3.43995 26,2.74515 C24.5045268,1.0782 22.3247634,0 19.8682416,0 C16.5452005,0 13.639315,1.912725 12.3831144,4.78785 C11.7952938,4.5978 11.1791455,4.5 10.5550033,4.5 C7.74349193,4.5 5.391356,6.436875 4.8513434,9.001125 C2.15694597,8.93295 0,10.9797 0,13.5 C0,15.981825 2.16602638,18 4.73422943,18 Z" id="Path"></path>
            </g>
        </g>
    </g>
</svg>