<?xml version="1.0" encoding="UTF-8"?>
<svg width="64px" height="63px" viewBox="0 0 64 63" version="1.1" xmlns="http://www.w3.org/2000/svg" xmlns:xlink="http://www.w3.org/1999/xlink">
    <!-- Generator: Sketch 57.1 (83088) - https://sketch.com -->
    <title>Group 23</title>
    <desc>Created with Sketch.</desc>
    <g id="Page-1" stroke="none" stroke-width="1" fill="none" fill-rule="evenodd">
        <g id="Group-23">
            <ellipse id="Oval" fill="#5DACFF" cx="32" cy="31.5" rx="32" ry="31.5"></ellipse>
            <path d="M25.000071,37 C27.7613391,37 30,34.5375906 30,31.5000321 C30,28.4624094 29.2650148,26 25.000071,26 C20.7351272,26 20,28.4624094 20,31.5000321 C20,34.5375906 22.2386609,37 25.000071,37 Z" id="Path" fill="#FFFFFF" fill-rule="nonzero"></path>
            <path d="M33.9893642,46.4052247 C33.8962115,40.6691048 33.1285766,39.0346221 27.2543918,38 C27.2543918,38 26.4275104,39.0282828 24.5002141,39.0282828 C22.5729179,39.0282828 21.7458937,38 21.7458937,38 C15.9358094,39.0233368 15.121491,40.6335772 15.014419,46.2188784 C15.0056391,46.6749565 15.0015704,46.6989202 15,46.645977 C15.0003569,46.7451759 15.0007852,46.928666 15.0007852,47.2486242 C15.0007852,47.2486242 16.3992884,50 24.5002141,50 C32.6009971,50 33.9996431,47.2486242 33.9996431,47.2486242 C33.9996431,47.0430512 33.9997859,46.9001045 34,46.8028561 C33.9984296,46.8355974 33.9952888,46.7721351 33.9893642,46.4052247 Z" id="Path" fill="#FFFFFF" fill-rule="nonzero"></path>
            <path d="M44.1986389,36 C44.6415779,36 45,35.5527333 45,35 C45,34.4472667 44.6415779,34 44.1986389,34 L31.8013611,34 C31.3584221,34 31,34.4472667 31,35 C31,35.5527333 31.3584221,36 31.8013611,36 L44.1986389,36 Z" id="Path" fill="#FFFFFF" fill-rule="nonzero"></path>
            <path d="M44.7190446,41.6666667 L42.531741,41.6666667 C41.9272432,41.6666667 41.3651791,42.1884778 41.3651791,42.8333333 C41.3651791,43.4781889 41.9272432,44 42.531741,44 L44.7190446,44 C46.5282363,44 48,42.4299778 48,40.5 C48,38.5700222 46.5282363,37 44.7190446,37 L35.0936518,37 C34.489154,37 34,37.5218111 34,38.1666667 C34,38.8115222 34.489154,39.3333333 35.0936518,39.3333333 L44.7190446,39.3333333 C45.3224488,39.3333333 45.8126964,39.8563111 45.8126964,40.5 C45.8126964,41.1436889 45.3224488,41.6666667 44.7190446,41.6666667 Z" id="Path" fill="#FFFFFF" fill-rule="nonzero"></path>
            <path d="M31.7735976,18.5218583 C31.1797076,18.3423667 30.5176095,18.3719365 29.9266106,18.25 C26.8129516,17.6075816 23.9788728,19.0157083 23.4332843,21.4375 C21.6184722,21.394575 20.1407107,23.1654083 19,26.75 C20.2468968,24.589202 22.2248946,23.508803 24.9339934,23.508803 C28.9976416,23.508803 31.7735976,25.5776485 31.7735976,31 C31.7735976,31 36.2808315,31 45.2952994,31 C47.8900202,31 50,29.0939458 50,26.75 C50,25.1386125 48.9822948,23.6921958 47.4546785,22.9752208 C47.5833521,22.4584917 47.6476497,21.9438167 47.6476497,21.4375 C47.6476497,17.3368875 43.8753423,14 39.3360119,14 C35.9786591,14 33.042769,15.8064625 31.7735976,18.5218583 Z" id="Path" fill="#FFFFFF" fill-rule="nonzero"></path>
        </g>
    </g>
</svg>