<?xml version="1.0" encoding="UTF-8"?>
<svg width="239px" height="235px" viewBox="0 0 239 235" version="1.1" xmlns="http://www.w3.org/2000/svg" xmlns:xlink="http://www.w3.org/1999/xlink">
    <!-- Generator: sketchtool 57.1 (101010) - https://sketch.com -->
    <title>1D696795-15C1-4F71-BFE0-F26E927D6CAC</title>
    <desc>Created with sketchtool.</desc>
    <defs>
        <path d="M59.1954545,0 C69.6796214,0 78.7964313,5.84179822 83.4551515,14.4412888 C83.6425422,14.4355078 83.8300245,14.4326241 84.0181818,14.4326241 C93.9492658,14.4326241 102,22.4660963 102,32.3758865 C102,42.2856767 93.9492658,50.3191489 84.0181818,50.3191489 C81.4029187,50.3191489 78.9180551,49.7620392 76.6762766,48.7602636 C71.9200445,52.6594404 65.8316704,55 59.1954545,55 C52.4942087,55 46.3515939,52.6133441 41.5747085,48.6453999 C39.267953,49.7195129 36.6950623,50.3191489 33.9818182,50.3191489 C24.0507342,50.3191489 16,42.2856767 16,32.3758865 C16,22.4660963 24.0507342,14.4326241 33.9818182,14.4326241 C34.2986815,14.4326241 34.6136306,14.4408022 34.9264651,14.4569585 C39.5831235,5.8490763 48.7047588,0 59.1954545,0 Z" id="path-1"></path>
        <filter x="-9.9%" y="-11.8%" width="119.8%" height="130.9%" filterUnits="objectBoundingBox" id="filter-2">
            <feOffset dx="0" dy="2" in="SourceAlpha" result="shadowOffsetOuter1"></feOffset>
            <feGaussianBlur stdDeviation="2.5" in="shadowOffsetOuter1" result="shadowBlurOuter1"></feGaussianBlur>
            <feColorMatrix values="0 0 0 0 0   0 0 0 0 0   0 0 0 0 0  0 0 0 0.2 0" type="matrix" in="shadowBlurOuter1"></feColorMatrix>
        </filter>
        <path d="M30.1960784,16 C37.5500341,16 43.9391282,20.1921867 47.16934,26.350077 L47.4509804,26.3469388 L47.4509804,26.3469388 C54.3816125,26.3469388 60,32.0484554 60,39.0816327 C60,46.1148099 54.3816125,51.8163265 47.4509804,51.8163265 C45.5995451,51.8163265 43.8417552,51.4094508 42.2597016,50.679005 C38.9619634,53.3816392 34.7652596,55 30.1960784,55 C25.5606503,55 21.3085786,53.3343709 17.9893374,50.5607167 C16.3436057,51.3653506 14.4982103,51.8163265 12.5490196,51.8163265 C5.61838745,51.8163265 0,46.1148099 0,39.0816327 C0,32.0484554 5.61838745,26.3469388 12.5490196,26.3469388 C12.772501,26.3469388 12.994618,26.352867 13.2152261,26.3645771 C16.4433587,20.1985344 22.8365573,16 30.1960784,16 Z" id="path-3"></path>
        <filter x="-14.2%" y="-16.7%" width="128.3%" height="143.6%" filterUnits="objectBoundingBox" id="filter-4">
            <feOffset dx="0" dy="2" in="SourceAlpha" result="shadowOffsetOuter1"></feOffset>
            <feGaussianBlur stdDeviation="2.5" in="shadowOffsetOuter1" result="shadowBlurOuter1"></feGaussianBlur>
            <feColorMatrix values="0 0 0 0 0   0 0 0 0 0   0 0 0 0 0  0 0 0 0.2 0" type="matrix" in="shadowBlurOuter1"></feColorMatrix>
        </filter>
    </defs>
    <g id="Iniciar-recorrido" stroke="none" stroke-width="1" fill="none" fill-rule="evenodd">
        <g id="04_ALERT" transform="translate(-60.000000, -191.000000)">
            <g id="illus_girl_alert_3" transform="translate(65.000000, 194.000000)">
                <g id="Background-Shape-2" opacity="0.504510789" transform="translate(120.000000, 128.500000) scale(-1, 1) translate(-120.000000, -128.500000) translate(17.000000, 72.000000)" fill="#F9DD82">
                    <path d="M205.910135,70.5778583 C208.912937,102.12316 136.08987,122.699081 73.4093672,108.339642 C10.7288647,93.9802027 -18.0259779,37.9049738 11.8841129,8.02588741 C41.7942037,-21.8531989 202.907333,39.0325567 205.910135,70.5778583 Z" id="Background-Shape"></path>
                </g>
                <g id="Background-Shape-2" opacity="0.504510789" transform="translate(198.500000, 199.000000) scale(-1, 1) translate(-198.500000, -199.000000) translate(163.000000, 178.000000)" fill="#F9DD82">
                    <path d="M70.9690271,26.2324783 C72.0039735,37.9572807 46.9047609,45.6049681 25.3012867,40.2678315 C3.6978126,34.9306948 -6.21283703,14.0885743 4.09598066,2.9830732 C14.4047984,-8.12242792 69.9340807,14.5076759 70.9690271,26.2324783 Z" id="Background-Shape"></path>
                </g>
                <g id="Background-Shape-2-Copy" opacity="0.504510789" transform="translate(78.500000, 40.500000) scale(-1, 1) translate(-78.500000, -40.500000) translate(17.000000, 5.000000)" fill="#F9DD82">
                    <path d="M122.946343,44.34538 C124.739278,64.1658793 81.2575435,77.0941127 43.8318066,68.0718103 C6.40606971,59.0495079 -10.7630839,23.8163994 7.09585383,5.04281421 C24.9547915,-13.730771 121.153407,24.5248807 122.946343,44.34538 Z" id="Background-Shape"></path>
                </g>
                <g id="Group-8" transform="translate(83.000000, 76.000000)">
                    <g id="Head/Front" transform="translate(25.000000, 0.000000)">
                        <path d="M14.0384615,0 C18.0357672,-7.34293146e-16 21.4000718,2.71020001 22.3940817,6.39330642 L22.4394013,6.54748734 C23.7784305,11.1434347 25.7268323,23.1270624 23.8912572,24.9438179 L12.7374111,24.9438179 L12.7316316,24.8370366 C8.57231849,24.2070207 5.38461538,20.6163837 5.38461538,16.2812188 L5.38461538,8.65384615 C5.38461538,3.8744589 9.25907428,8.77959196e-16 14.0384615,0 Z" id="Hair-Back" fill="#243044"></path>
                        <g id="Head" transform="translate(6.538462, 1.558442)" fill="#B28B67">
                            <path d="M14.6705159,3.55867516 C16.8992893,7.76690443 16.6344531,18.4414269 13.7539621,19.1935549 C12.6052897,19.4934859 10.1583477,18.7588322 7.66786342,17.2382933 L9.23076923,28.4415584 L0,28.4415584 L3.1775563,13.4374247 C1.40541585,11.3301717 0.206022481,8.74774284 0.406452436,5.85407294 C0.983973162,-2.48377425 12.4417426,-0.6495541 14.6705159,3.55867516 Z"></path>
                        </g>
                        <path d="M13.8466994,0.38961039 C18.3005573,0.38961039 19.706379,2.48895672 20.9033388,4.2713321 C20.0083074,7.38230359 16.5350095,7.84367874 13.4486666,9.78273516 C13.0845261,9.48349535 12.6206417,9.30405704 12.1153846,9.30405704 C10.94709,9.30405704 10,10.2634469 10,11.4469142 C10,12.6303815 10.94709,13.5897713 12.1153846,13.5897713 L12.2110821,13.5858724 C12.6368761,18.21377 12.4666309,23.5000406 11.1989495,24.7547248 L0.0451033594,24.7547248 C-0.576355798,13.8169421 5.42971874,18.0525412 5.42971874,7.75433479 C5.80381161,7.38407738 6.15731903,7.01760345 6.50710519,6.70146166 L6.49572193,6.3976755 C8.42713493,2.39229876 10.8774607,0.38961039 13.8466994,0.38961039 Z" id="Hair-Front" fill="#243044" fill-rule="nonzero"></path>
                    </g>
                    <g id="Bottom/Skinny-Jeans-1" transform="translate(11.000000, 63.000000)">
                        <polygon id="Leg" fill="#997659" points="17.0322581 1.13686838e-13 31.5990339 47.8713301 38.6555435 88.5828128 44.1883343 88.5828128 36.73199 1.13686838e-13"></polygon>
                        <path d="M11.8210557,0 C12.8104664,26.2839332 11.6460637,39.8416619 11.4246218,42.2296716 C11.2031798,44.6176812 8.17091469,60.1016633 0.992395106,89.3844672 L6.88799704,87.3490629 C18.2329779,60.4923981 22.0989429,46.5345152 23.4001263,43.0079142 C24.7013097,39.4813133 28.1571883,25.1453419 33.767762,0 L11.8210557,0 Z" id="Leg" fill="#B28B67"></path>
                        <g id="Left-Shoe-Accessories/Shoe/Flat-Sneaker" transform="translate(0.000000, 77.435146)" fill="#E4E4E4">
                            <path d="M0.585963428,11.2666311 C0.453385663,11.7649916 0.38709678,12.1737818 0.38709678,12.4930017 C0.38709678,13.1946989 0.503386152,14.2186495 0.735964894,15.5648537 C1.54574757,15.5648537 8.82340087,15.5648537 22.5689248,15.5648537 C23.136286,13.679369 22.8087722,12.6614565 21.5863834,12.5111162 C20.3639945,12.3607759 19.3485354,12.2250306 18.5400058,12.1038804 L8.97088556,7.81560736 C8.46689438,7.58975047 7.87523562,7.81522286 7.64937872,8.31921404 C7.6449999,8.32898522 7.64077829,8.33882611 7.63671554,8.34873289 L7.2244697,9.35396927 L7.2244697,9.35396927 C6.09285734,9.88471409 5.17330482,10.1500865 4.46581212,10.1500865 C4.11335164,10.1500865 3.67854888,10.0623474 3.16140386,9.88686931 L3.16140752,9.88685852 C2.11540897,9.53192934 0.979732658,10.0921517 0.624803473,11.1381503 C0.61042295,11.1805306 0.597468976,11.2233816 0.585963428,11.2666311 Z" id="shoe"></path>
                        </g>
                        <g id="Right-Shoe-Accessories/Shoe/Flat-Sneaker" transform="translate(36.387097, 77.435146)" fill="#E4E4E4">
                            <path d="M0.585963428,11.2666311 C0.453385663,11.7649916 0.38709678,12.1737818 0.38709678,12.4930017 C0.38709678,13.1946989 0.503386152,14.2186495 0.735964894,15.5648537 C1.54574757,15.5648537 8.82340087,15.5648537 22.5689248,15.5648537 C23.136286,13.679369 22.8087722,12.6614565 21.5863834,12.5111162 C20.3639945,12.3607759 19.3485354,12.2250306 18.5400058,12.1038804 L8.97088556,7.81560736 C8.46689438,7.58975047 7.87523562,7.81522286 7.64937872,8.31921404 C7.6449999,8.32898522 7.64077829,8.33882611 7.63671554,8.34873289 L7.2244697,9.35396927 L7.2244697,9.35396927 C6.09285734,9.88471409 5.17330482,10.1500865 4.46581212,10.1500865 C4.11335164,10.1500865 3.67854888,10.0623474 3.16140386,9.88686931 L3.16140752,9.88685852 C2.11540897,9.53192934 0.979732658,10.0921517 0.624803473,11.1381503 C0.61042295,11.1805306 0.597468976,11.2233816 0.585963428,11.2666311 Z" id="shoe"></path>
                        </g>
                        <polygon id="Bottom" fill="#243044" points="15.0967742 0 21.2903226 24.3899388 40.207865 24.3899388 37.3871824 0"></polygon>
                        <path d="M11.6129032,0 C9.57500871,6.14054722 9.18791194,14.2705268 10.4516129,24.3899388 L29.7562521,24.3899388 L35.0646017,0 L11.6129032,0 Z" id="Bottom" fill="#243044"></path>
                    </g>
                    <g id="Body/Long-Sleeve-1" transform="translate(0.000000, 16.000000)">
                        <path d="M13.3779342,42.2209728 L21.5266027,42.2530938 C16.4951759,58.533969 13.7789531,67.1724995 13.3779342,68.1686851 C12.4756418,70.4101027 14.3850139,73.8237429 15.2015372,75.6582076 C12.542148,76.8510305 12.8255088,72.4335204 9.47076084,73.9979741 C6.4087025,75.4259349 4.07940234,78.0133043 0.541636371,75.8252112 C0.106688834,75.556198 -0.369942805,74.5433148 0.781659492,73.7518001 C3.65072079,71.7798484 7.78521192,68.3285776 8.34384679,67.1925651 C9.10564523,65.6434091 10.7836744,57.319545 13.3779342,42.2209728 L13.3779342,42.2209728 Z M49.581787,1.8758196 C49.2954571,-0.334813908 50.3145631,0.260258988 50.8290667,0.769894831 C52.3005016,2.96450423 55.0915552,7.74208658 56.1771642,11.071236 L56.1771642,11.071236 L58.7827286,23.7446329 L52.0477925,23.7446329 L52.0477925,12.0745013 C47.7791072,8.80216441 45.9736612,6.94179073 46.6314546,6.49338029 C47.6181447,5.82076463 48.5915915,7.11648527 49.3308499,6.77055049 C50.0701083,6.4246157 49.868117,4.08645311 49.581787,1.8758196 Z" id="Skin" fill="#B28B67"></path>
                        <path d="M35.1929314,8.9879436 L38.5014092,8.11655941 C44.8940798,23.5092413 47.3819226,36.9566682 50.7501318,16.010143 L57.9236568,13.5390405 C60.0345209,25.5905231 61.0813455,30.5936667 59.8490856,35.5467926 C58.6168257,40.4999185 48.1228132,40.7177553 42.8842987,37.0310191 C35.0363929,31.5078581 35.5816731,15.7187757 35.1929314,8.9879436 Z" id="Coat-Back" fill="#094B9E" transform="translate(47.784383, 23.838474) rotate(5.000000) translate(-47.784383, -23.838474) "></path>
                        <path d="M21.836478,50.4213198 L51.8616352,50.4213198 C44.9054963,33.467697 41.4274268,19.0657955 41.4274268,7.2156154 L32.3703201,5.86294416 C25.2522853,17.3380575 23.2421335,31.4662454 21.836478,50.4213198 Z" id="Shirt" fill="#DDE3E9"></path>
                        <path d="M32.7733373,5.86294416 C33.4807721,5.8873626 34.5582861,5.93135725 36.0058793,5.99492813 L36.0058793,5.99492813 L38.1944013,12.2640597 C38.4258984,19.9075968 39.7778063,35.3113863 42.2501249,58.4754284 L42.2501249,58.4754284 L22.568016,58.4749369 C22.6196108,60.0749425 22.7046904,61.6898958 22.8232547,63.319797 L22.8232547,63.319797 L8.18867925,63.319797 C10.3777536,38.5640872 18.3719793,19.4118029 32.1713565,5.86294416 L32.1713565,5.86294416 L32.1776792,5.86994416 L32.1821266,5.86294416 Z" id="Coat-Front" fill="#0F79FF"></path>
                        <path d="M28.0754717,58.6294416 L22.5730897,58.6291121 C22.3322564,51.4551627 22.7637788,44.5813567 23.8676567,38.0076941 C24.4286103,47.9791731 25.8309901,54.8529091 28.0754717,58.6294416 Z" id="Shade" fill-opacity="0.1" fill="#000000"></path>
                        <polygon id="Light" fill-opacity="0.2" fill="#FFFFFF" points="26.948904 46.5126904 36.6540881 41.9901215 36.6540881 46.5126904"></polygon>
                    </g>
                </g>
                <g id="Group-6-Copy">
                    <g id="Combined-Shape">
                        <use fill="black" fill-opacity="1" filter="url(#filter-2)" xlink:href="#path-1"></use>
                        <use fill="#FFFFFF" fill-rule="evenodd" xlink:href="#path-1"></use>
                    </g>
                    <g id="Combined-Shape">
                        <use fill="black" fill-opacity="1" filter="url(#filter-4)" xlink:href="#path-3"></use>
                        <use fill="#FFFFFF" fill-rule="evenodd" xlink:href="#path-3"></use>
                    </g>
                </g>
            </g>
        </g>
    </g>
</svg>