<?xml version="1.0" encoding="UTF-8"?>
<svg width="30px" height="30px" viewBox="0 0 30 30" version="1.1" xmlns="http://www.w3.org/2000/svg" xmlns:xlink="http://www.w3.org/1999/xlink">
    <!-- Generator: Sketch 57.1 (83088) - https://sketch.com -->
    <title>mi_perfil</title>
    <desc>Created with Sketch.</desc>
    <g id="Page-1" stroke="none" stroke-width="1" fill="none" fill-rule="evenodd">
        <g id="01_mapa" transform="translate(-272.000000, -890.000000)" fill="#AAADB3" fill-rule="nonzero">
            <g id="mi_perfil" transform="translate(272.000000, 890.000000)">
                <g id="001-male" transform="translate(0.000000, 9.869525)">
                    <path d="M8.3333945,9.50605778 C10.7137981,9.50605778 12.6436782,7.37807544 12.6436782,4.75305666 C12.6436782,2.12798235 12.0100702,0 8.3333945,0 C4.65671881,0 4.02298851,2.12798235 4.02298851,4.75305666 C4.02298851,7.37807544 5.95286857,9.50605778 8.3333945,9.50605778 Z" id="Path"></path>
                    <path d="M16.0829461,17.1152863 C16.0040509,12.3040022 15.3539064,10.9330474 10.3787953,10.0652377 C10.3787953,10.0652377 9.67847218,10.9277302 8.04615838,10.9277302 C6.41384458,10.9277302 5.71340059,10.0652377 5.71340059,10.0652377 C0.792579035,10.9235817 0.102896226,12.2742026 0.0122121255,16.9589847 C0.00477602927,17.3415292 0.00133003347,17.3616293 0,17.3172221 C0.000302280334,17.4004271 0.000665016734,17.5543331 0.000665016734,17.8227043 C0.000665016734,17.8227043 1.18512028,20.1304753 8.04615838,20.1304753 C14.9070756,20.1304753 16.0916517,17.8227043 16.0916517,17.8227043 C16.0916517,17.6502759 16.0917727,17.5303766 16.091954,17.4488076 C16.090624,17.4762699 16.0879639,17.4230397 16.0829461,17.1152863 Z" id="Path"></path>
                </g>
                <g id="017-winter-copy" transform="translate(3.333333, 0.000000)">
                    <path d="M20.9988658,17.8378378 C21.3679816,17.8378378 21.6666667,17.4751892 21.6666667,17.027027 C21.6666667,16.5788649 21.3679816,16.2162162 20.9988658,16.2162162 L10.6678009,16.2162162 C10.2986851,16.2162162 10,16.5788649 10,17.027027 C10,17.4751892 10.2986851,17.8378378 10.6678009,17.8378378 L20.9988658,17.8378378 Z" id="Path"></path>
                    <path d="M22.4219078,23.2432432 L20.5116088,23.2432432 C19.9836658,23.2432432 19.4927827,23.6663333 19.4927827,24.1891892 C19.4927827,24.712045 19.9836658,25.1351351 20.5116088,25.1351351 L22.4219078,25.1351351 C24.0019798,25.1351351 25.2873563,23.8621441 25.2873563,22.2972973 C25.2873563,20.7324505 24.0019798,19.4594595 22.4219078,19.4594595 L14.0154943,19.4594595 C13.4875514,19.4594595 13.0603448,19.8825495 13.0603448,20.4054054 C13.0603448,20.9282613 13.4875514,21.3513514 14.0154943,21.3513514 L22.4219078,21.3513514 C22.9488956,21.3513514 23.3770573,21.7753874 23.3770573,22.2972973 C23.3770573,22.8192072 22.9488956,23.2432432 22.4219078,23.2432432 Z" id="Path"></path>
                    <path d="M10.7630703,3.88204054 C10.2626568,3.72794595 9.70477111,3.7533318 9.20679366,3.64864865 C6.58321564,3.09712884 4.19521261,4.30601351 3.7354982,6.38513514 C2.20633224,6.34828378 0.961166176,7.86855405 -1.59872116e-14,10.9459459 C1.05063887,9.09088884 2.71730553,8.16336028 5,8.16336028 C8.4240417,8.16336028 10.7630703,9.93947563 10.7630703,14.5945946 C10.7630703,14.5945946 14.5608786,14.5945946 22.1564953,14.5945946 C24.3428145,14.5945946 26.1206897,12.9582365 26.1206897,10.9459459 C26.1206897,9.56256081 25.2631683,8.32080405 23.9759944,7.70527703 C24.0844151,7.26166216 24.1385925,6.81981081 24.1385925,6.38513514 C24.1385925,2.86473649 20.9600353,0 17.1351824,0 C14.3062672,0 11.8324778,1.55085811 10.7630703,3.88204054 Z" id="Path"></path>
                </g>
            </g>
        </g>
    </g>
</svg>