<?xml version="1.0" encoding="UTF-8"?>
<svg width="34px" height="30px" viewBox="0 0 34 30" version="1.1" xmlns="http://www.w3.org/2000/svg" xmlns:xlink="http://www.w3.org/1999/xlink">
    <!-- Generator: Sketch 57.1 (83088) - https://sketch.com -->
    <title>mi_recorrido</title>
    <desc>Created with Sketch.</desc>
    <g id="Page-1" stroke="none" stroke-width="1" fill="none" fill-rule="evenodd">
        <g id="01_mapa" transform="translate(-81.000000, -896.000000)" fill="#AAADB3" fill-rule="nonzero">
            <g id="mi_recorrido" transform="translate(81.000000, 896.000000)">
                <g id="009-relaxing-walk">
                    <ellipse id="Oval" cx="7.54375" cy="3.08823529" rx="2.975" ry="3.08823529"></ellipse>
                    <path d="M15.657065,12.7150019 C13.280839,11.3279934 11.3311393,9.4544649 9.68993036,7.25042535 C8.65864924,5.78802046 5.93207927,5.8643652 4.8241457,7.20442883 C3.13873232,8.85793268 1.70867036,10.562175 0.574402203,12.2673656 C0.11072542,12.9658489 0.295067508,13.9109115 0.98729086,14.3784638 C1.24546384,14.552966 1.53655504,14.6364236 1.82576521,14.6364236 C2.31201449,14.6364236 2.78979909,14.3998023 3.08042003,13.9616499 C3.57842582,13.2138508 4.1432086,12.4636807 4.76865497,11.7168299 C4.74467169,13.2973084 4.82320518,16.1490928 4.86270706,17.4308309 C4.87587435,17.8576028 4.77947096,18.2748908 4.5829021,18.6537694 C3.0272806,21.6492336 2.03220953,24.483473 1.02209013,27.9507572 C0.774733146,28.7971881 1.25580956,29.6853477 2.09475417,29.934298 C2.28473938,29.9907267 2.47660564,30.0096943 2.66188825,29.9954686 C3.30050191,29.9461527 3.87139807,29.5075261 4.06232381,28.8521942 C4.99437998,25.6551988 5.8949287,23.0665904 7.2995966,20.3257667 C7.37107619,20.3286118 7.44255577,20.3286118 7.51497588,20.3252925 C8.41176252,23.023439 9.30901942,25.7230081 10.2072168,28.4211546 C10.8594681,30.3876245 13.8855939,29.3662172 13.2314617,27.3992731 C12.2500281,24.4493312 11.2700054,21.5008119 10.2918637,18.5513441 C10.2349622,18.382058 10.0971759,17.719139 10.0778952,17.5029079 C9.91612563,15.6858082 9.85734308,13.8743988 9.87474271,12.0606184 C11.2516652,13.390724 12.7786009,14.5444306 14.4748302,15.5354897 C16.166357,16.5256004 17.3260192,13.6904127 15.657065,12.7150019 Z" id="Path"></path>
                </g>
                <g id="017-winter-copy" transform="translate(10.000000, 0.000000)">
                    <path d="M14.3987902,19.1612903 C14.7925137,19.1612903 15.1111111,18.7717355 15.1111111,18.2903226 C15.1111111,17.8089097 14.7925137,17.4193548 14.3987902,17.4193548 L3.37898761,17.4193548 C2.98526408,17.4193548 2.66666667,17.8089097 2.66666667,18.2903226 C2.66666667,18.7717355 2.98526408,19.1612903 3.37898761,19.1612903 L14.3987902,19.1612903 Z" id="Path"></path>
                    <path d="M19.4722572,24.9677419 L17.434605,24.9677419 C16.8714658,24.9677419 16.3478571,25.4222226 16.3478571,25.983871 C16.3478571,26.5455194 16.8714658,27 17.434605,27 L19.4722572,27 C21.1576673,27 22.5287356,25.6325613 22.5287356,23.9516129 C22.5287356,22.2706645 21.1576673,20.9032258 19.4722572,20.9032258 L4.4230508,20.9032258 C3.85991164,20.9032258 3.40422467,21.3577065 3.40422467,21.9193548 C3.40422467,22.4810032 3.85991164,22.9354839 4.4230508,22.9354839 L19.4722572,22.9354839 C20.0343776,22.9354839 20.4910834,23.3909806 20.4910834,23.9516129 C20.4910834,24.5122452 20.0343776,24.9677419 19.4722572,24.9677419 Z" id="Path"></path>
                    <path d="M7.03616388,4.1700629 C6.50238951,4.00453548 5.42006484,3.47760291 4.88888889,3.36515294 C2.09040567,2.77271393 0.823695368,3.86339516 0.333333333,6.09677419 C0.876302133,7.40023306 2.6014706,8.96963599 4.88888889,10.4549491 C7.17630718,11.9402622 8.5638417,13.5 7.11111111,15.6774194 C7.11111111,15.6774194 11.1371242,15.6774194 19.1891505,15.6774194 C21.5212244,15.6774194 23.4176245,13.919654 23.4176245,11.7580645 C23.4176245,10.2720411 22.5029351,8.93815403 21.1299496,8.27695887 C21.2455984,7.80043065 21.3033875,7.32579677 21.3033875,6.85887097 C21.3033875,3.07728145 17.9129266,0 13.8330835,0 C10.8155739,0 8.17686521,1.66592177 7.03616388,4.1700629 Z" id="Path"></path>
                </g>
            </g>
        </g>
    </g>
</svg>
