<svg height="512pt" viewBox="0 -77 512.00001 512" width="512pt" xmlns="http://www.w3.org/2000/svg"><path d="m415.980469 166.785156c-6.960938 0-13.75.75-20.292969 2.164063l-18.964844-48.898438v-70.15625c0-27.511719-22.382812-49.894531-49.894531-49.894531h-31.558594c-8.292969 0-15.011719 6.722656-15.011719 15.011719 0 8.289062 6.71875 15.011719 15.011719 15.011719h31.558594c10.957031 0 19.871094 8.914062 19.871094 19.871093v57.953125h-156.019531v-23.132812h24.855468c8.292969 0 15.011719-6.722656 15.011719-15.011719s-6.71875-15.011719-15.011719-15.011719h-79.730468c-8.289063 0-15.011719 6.722656-15.011719 15.011719s6.722656 15.011719 15.011719 15.011719h24.855468v34.171875l-30.777344 54.070312c-10.539062-3.984375-21.949218-6.171875-33.863281-6.171875-52.945312 0-96.019531 43.074219-96.019531 96.015625 0 52.945313 43.074219 96.019531 96.019531 96.019531 47.835938 0 87.613281-35.167968 94.839844-81.007812h38.042969c.046875 0 .085937-.003906.132812-.003906.457032-.003906.914063-.023438 1.371094-.070313.355469-.035156.699219-.097656 1.046875-.15625.140625-.023437.285156-.035156.425781-.066406.40625-.078125.796875-.1875 1.191406-.300781.085938-.023438.171876-.039063.257813-.066406.417969-.128907.828125-.28125 1.230469-.445313.058594-.023437.121094-.039063.179687-.066406.457031-.191407.898438-.40625 1.332031-.640625.179688-.097656.351563-.214844.53125-.324219.246094-.144531.5-.289063.734376-.449219.179687-.125.351562-.261718.527343-.394531.226563-.171875.457031-.335937.671875-.519531.164063-.132813.316406-.285156.472656-.425782.21875-.203124.4375-.402343.648438-.617187.042969-.042969.09375-.082031.136719-.128906l116.492187-122.753907 11.421875 29.449219c-28.53125 16.664063-47.742187 47.613281-47.742187 82.96875 0 52.945313 43.074218 96.019531 96.015625 96.019531 52.945312 0 96.019531-43.074218 96.019531-96.019531 0-52.941406-43.074219-96.015625-96.019531-96.015625zm-231.582031-28.914062h142.371093l-104.316406 109.921875h-31.59375c-3.804687-24.132813-16.632813-45.304688-34.90625-59.945313zm-24.128907 109.921875h-38.433593l18.996093-33.378907c9.496094 8.800782 16.394531 20.351563 19.4375 33.378907zm-64.25 81.003906c-36.390625 0-65.996093-29.605469-65.996093-65.996094 0-36.386719 29.605468-65.992187 65.996093-65.992187 6.507813 0 12.792969.960937 18.738281 2.726562l-31.785156 55.84375c-.019531.03125-.035156.066406-.054687.101563-.167969.304687-.320313.621093-.472657.9375-.0625.136719-.136718.269531-.195312.40625-.128906.296875-.234375.601562-.347656.90625-.058594.167969-.128906.335937-.183594.503906-.078125.242187-.136719.496094-.203125.742187-.0625.238282-.132813.476563-.183594.71875-.039062.183594-.0625.371094-.09375.554688-.054687.3125-.109375.621094-.140625.933594-.019531.15625-.019531.3125-.035156.46875-.023438.347656-.046875.6875-.050781 1.03125 0 .042968-.003907.078125-.003907.117187 0 .144531.015626.28125.019532.425781.007812.308594.019531.617188.046875.921876.019531.238281.054687.46875.089843.699218.03125.242188.0625.484375.109376.722656.050781.273438.113281.539063.179687.804688.046875.199219.09375.398438.152344.59375.078125.277344.171875.550781.265625.820312.066406.1875.132812.375.203125.558594.105469.257813.214843.507813.332031.757813.089844.195312.183594.394531.285156.585937.113282.222656.234375.433594.355469.648438.128906.214844.253906.429687.390625.640625.117188.179687.242188.355469.367188.53125.160156.226562.324218.449219.5.667969.121093.152343.25.296874.378906.445312.1875.21875.378906.4375.582031.644531.144531.144531.292969.285157.4375.421875.199219.191406.402344.378906.613281.558594.1875.15625.382813.304688.574219.453125.1875.140625.367187.285156.5625.417969.257813.179687.523437.34375.789063.503906.121093.074219.230468.15625.351562.222656.042969.027344.085938.046875.128906.070313.128906.070312.257813.136719.390625.203125.269531.140625.542969.273437.820313.394531.117187.054687.234375.109375.351562.160156.386719.15625.773438.300781 1.167969.425781.09375.027344.191406.054688.285156.085938.375.109375.753907.207031 1.132813.289062.054687.011719.113281.027344.171875.039063.453125.089844.90625.160156 1.359375.207031.0625.007813.125.011719.183594.019532.472656.042968.945312.074218 1.417968.074218.027344 0 .050782-.003906.074219-.003906h64.191406c-6.816406 29.179688-33.027343 50.984375-64.25 50.984375zm319.960938 0c-36.386719 0-65.992188-29.605469-65.992188-65.996094 0-22.589843 11.414063-42.558593 28.773438-54.457031l23.226562 59.886719c2.304688 5.945312 7.980469 9.589843 13.996094 9.589843 1.804687 0 3.640625-.328124 5.425781-1.019531 7.730469-3 11.566406-11.695312 8.570313-19.425781l-23.234375-59.90625c3.019531-.425781 6.101562-.660156 9.234375-.660156 36.390625 0 65.996093 29.605468 65.996093 65.996094 0 36.390624-29.605468 65.992187-65.996093 65.992187zm0 0"/></svg>