<?xml version="1.0" encoding="UTF-8"?>
<svg width="375px" height="353px" viewBox="0 0 375 353" version="1.1" xmlns="http://www.w3.org/2000/svg" xmlns:xlink="http://www.w3.org/1999/xlink">
    <!-- Generator: sketchtool 57.1 (101010) - https://sketch.com -->
    <title>9588D6FB-F7EB-42CA-B7B6-55EDB3EB7FC0</title>
    <desc>Created with sketchtool.</desc>
    <g id="Iniciar-recorrido" stroke="none" stroke-width="1" fill="none" fill-rule="evenodd">
        <g id="02_START_TRIP" transform="translate(0.000000, -80.000000)">
            <g id="background_start_tip" transform="translate(-83.000000, -44.000000)">
                <g id="Scene/Whiteboard-Scene/Plants">
                    <g id="Background-Shape-2" opacity="0.504510789" transform="translate(39.912162, 260.679412)" fill="#F2F2F2">
                        <path d="M457.291768,118.965331 C463.960487,172.137775 302.232705,206.820341 163.029854,182.616215 C23.8270035,158.412088 -40.0326641,63.8922439 26.3926154,13.5283554 C92.817895,-36.8355331 450.623049,65.7928863 457.291768,118.965331 Z" id="Background-Shape"></path>
                    </g>
                    <g id="Plant-Right" opacity="0.7" transform="translate(462.255405, 293.554412) rotate(-44.000000) translate(-462.255405, -293.554412) translate(368.643243, 149.291176)" fill="#DCDCDC">
                        <path d="M57.9849355,87.4400572 C48.078223,87.999045 36.4973764,95.4947222 36.5718348,107.028866 C36.6261515,115.409412 37.6781764,123.654064 37.3131393,132.069065 C37.0208667,138.794433 35.6489465,145.372783 33.5178089,151.707874 C31.4685915,157.799733 26.5184608,163.344545 25.7151804,169.697239 C25.2031194,173.745065 26.2550445,179.240645 27.8785875,182.96206 C29.8529372,187.486681 29.0130031,187.205698 26.3896098,191.481732 C21.2490213,199.861459 16.715319,208.371927 13.8663606,218.011476 C9.76252546,231.895886 7.74400885,247.814041 11.1861531,262.123382 C11.6237806,263.940503 12.5798582,270.529986 15.0098186,270.725823 C17.7238004,270.945083 16.1051151,267.296509 15.8422916,266.088781 C14.1664121,258.382606 12.6884112,251.648076 12.9994491,243.595975 C14.1999463,212.528298 32.8030815,190.063505 43.65009,162.594586 C44.2550992,161.172918 45.4966566,157.809945 46.3710919,155.58509 C47.7516197,152.072539 48.8455905,145.560516 50.9149574,142.838825 C54.812164,137.711511 51.7283474,147.486977 51.0553839,149.362595 C50.2046223,151.735082 49.2604065,154.261051 48.3556223,156.357783 C44.2273605,166.06948 39.5972404,176.684512 35.3318342,186.696671 C58.3388168,189.636398 71.3237562,159.069882 75.486858,139.464254 C78.9169723,123.311364 81.2654691,86.1810661 57.9849355,87.4400572" id="Leaf-Me-Alone!" transform="translate(43.540541, 179.072059) scale(-1, 1) rotate(6.000000) translate(-43.540541, -179.072059) "></path>
                        <path d="M152.976329,60.4290456 C136.414425,61.8297576 125.782047,73.4789148 120.832639,89.7723669 C118.165085,98.5530274 117.859332,107.573326 116.376951,116.596881 C114.146971,130.172913 109.348913,140.461081 99.9718899,150.133222 C97.0675454,153.128701 94.9272772,156.204276 93.4058377,159.494745 C90.3855391,162.780004 87.756433,166.497653 85.8248821,171.042967 C83.3575014,176.847685 82.6593358,183.812173 85.5081444,189.599308 C86.2740516,191.155004 88.1848528,194.278116 90.1652263,195.697062 C82.7508785,212.529049 78.6741773,230.963617 79.1337216,249.374742 C79.4114011,260.48862 79.9203785,271.607057 80.5141854,282.70726 C80.67408,285.687762 81.5846246,290.609464 82.9522724,285.610921 C84.2039662,281.038909 82.6343142,273.86148 82.4890664,269.084994 C81.7823568,245.816634 81.1781751,224.660087 90.1640058,202.920724 C91.1062852,200.642207 92.1053211,198.381922 93.1458564,196.139871 C93.2068849,196.102102 93.2636413,196.056519 93.3210081,196.012238 C93.3606766,196.044798 93.3966834,196.079962 93.4363519,196.11187 C93.5028729,195.985539 93.5938053,195.835114 93.6999948,195.667107 C93.998424,195.338906 94.2590156,194.924098 94.5067911,194.461101 C95.3038228,193.283747 96.2058235,191.900618 96.2107058,191.143282 C96.2107058,191.137422 96.2076543,191.128305 96.2076543,191.122444 C101.770399,181.44314 108.14177,172.297161 114.649845,163.33026 C114.601022,163.395379 121.709007,153.07921 120.609885,158.784295 C120.080158,161.533624 114.851849,166.7692 112.740265,169.681327 C108.069146,176.160027 102.583908,184.368941 98.0256922,192.306961 C97.4123562,192.682698 96.545752,194.527522 95.9189897,195.901536 C95.5729583,196.597659 95.2501178,197.299643 94.9327698,197.911111 C111.083952,203.599265 123.647882,192.141558 132.215057,178.814933 C132.225432,178.799304 132.234586,178.783024 132.244351,178.767396 C134.851487,175.08491 137.522092,171.428472 140.858518,168.517648 C146.424924,163.660414 152.386184,162.803446 158.949185,160.412924 C176.847002,153.894501 184.456641,129.169427 186.873368,110.823421 C189.60012,90.1259636 176.262349,58.3882128 152.976329,60.4290456" id="Leaf-Me-Alone!"></path>
                        <path d="M135.764692,6.40627651 C116.469844,22.5588338 104.922621,47.2420558 95.2728683,70.6273807 C84.4952369,96.746448 76.1038196,123.650883 72.1933531,151.899601 C69.624499,170.459166 66.6856847,189.081599 65.2564115,207.789891 C64.7484001,214.434073 64.4943135,221.128038 64.6146706,227.794112 C64.6247472,228.341911 64.8979357,243.226749 67.442876,240.14905 C68.8902407,238.398834 67.1865171,224.712261 67.2157189,222.47956 C67.3825016,209.904462 68.6838221,197.406355 70.3960193,184.971654 C73.2149216,164.49833 75.3359475,144.027427 79.9760466,123.90376 C80.6683896,120.899113 81.3203773,117.732025 82.3927657,114.851851 C83.5318631,111.789666 82.4309262,113.035928 84.945545,112.13283 C87.3889743,111.254637 90.1866316,111.851447 92.7567508,110.675631 C102.951463,106.010909 109.813431,91.1338688 114.902835,81.4604582 C120.723782,70.3985253 124.969066,58.3086896 128.6695,46.3042636 C131.387225,37.4841409 133.663242,28.6539707 135.488589,19.5813538 C136.063775,16.7219647 136.473604,13.7031088 137.380629,10.9427034 C137.625044,10.198058 138.523625,8.95062395 138.586983,8.26824126 C138.720987,6.82403253 138.01921,5.85772525 138.111729,4.64117647 C137.317986,5.21156063 136.534893,5.8003226 135.764692,6.40627651" id="Leaf-Me-Alone!" transform="translate(101.594595, 122.604412) rotate(-8.000000) translate(-101.594595, -122.604412) "></path>
                    </g>
                    <g id="Plant-Left" opacity="0.5" transform="translate(22.000000, 59.055738)" fill="#DCDCDC">
                        <path d="M127.834032,83.3093445 C130.848237,78.8300722 136.44174,67.4541909 140.684177,65.8536124 C143.416699,64.8226919 142.619994,75.4867748 142.653739,77.5201814 C142.785152,85.3871114 142.050291,93.204159 141.142798,101.005039 C139.507859,115.073894 134.16175,127.603279 126.829167,139.577323 C123.055975,145.738696 118.63032,151.97478 112.500581,155.819182 C109.679056,157.589607 106.284053,157.886035 103.49762,159.4114 C100.252412,161.187124 102.019746,159.751637 100.557241,163.276023 C98.5262438,168.169162 97.8766151,174.481832 96.9369045,179.702985 C92.6222145,203.670914 82.1764307,330.371636 83.9873291,354.751601 C84.1481658,356.912534 81.2570361,357.429287 81.1127093,354.79124 C80.3455871,340.803574 86.9836701,243.939203 90.3326955,212.261768 C93.6817209,180.584334 97.0707817,152.598904 100.468987,141.639504 C104.591516,128.343422 112.037039,112.353856 118.234917,99.9546841 C121.113785,94.1943087 124.251808,88.6323748 127.834032,83.3093445 Z" id="Leaf"></path>
                        <path d="M150.206515,238.673215 C158.04989,232.671905 166.539755,243.998166 159.442308,250.000399 C155.518672,253.318069 151.416739,252.137883 149.107462,249.373093 C147.608373,251.277521 146.205277,253.268786 144.857084,254.950713 C140.749483,260.075863 136.867179,265.323339 133.156822,270.69317 C125.449129,281.848862 118.843775,293.634613 111.937408,305.204852 C105.121726,316.624049 98.360543,328.101733 92.1829008,339.810245 C86.949561,349.730193 79.9741838,361.400217 78.1824513,372.27541 C80.9009847,349.211007 91.2165871,327.042032 103.50067,306.708994 C115.684797,286.542991 129.667499,264.519476 148.533048,248.604908 C146.612997,245.662182 146.559696,241.461666 150.206515,238.673215 Z" id="Leaf"></path>
                        <path d="M1.3722789,182.423 C5.76143026,183.3176 12.9332541,193.665573 16.5512237,197.608232 C20.8509373,202.293528 24.7518447,207.287387 28.428909,212.519709 C36.3448754,223.782065 43.424316,235.756287 49.4442488,248.243305 C59.2583153,268.599641 67.1206587,289.496126 72.8266978,311.663036 C76.3195712,325.232203 78.5810622,339.296117 79.9213434,353.261818 C80.1744612,355.895666 82.8240502,376.202132 79.0061547,376.749448 C75.5723602,377.242271 76.6329312,361.330331 76.4672754,359.165915 C74.5947172,334.747257 68.9850636,310.988108 61.1820869,287.9723 C59.4824867,282.958524 57.903498,276.817544 55.1854363,272.30563 C53.2280511,269.05577 55.1713993,270.189101 51.7315522,268.959186 C48.7778952,267.902476 45.4126235,268.16069 42.3880119,266.867189 C35.8173422,264.058881 30.5561206,258.60712 25.9442998,253.123289 C16.9819155,242.465945 9.87968181,230.936367 6.17758745,217.280554 C4.12392144,209.708852 2.23670721,202.093107 1.18941919,194.287272 C0.918504016,192.269692 -1.45474036,181.846795 1.3722789,182.423 Z" id="Leaf"></path>
                        <path d="M18.6930389,10.253296 C35.2260631,40.135783 48.8122251,72.9609116 57.5849078,106.207802 C62.9001065,126.351734 66.6171845,147.022367 70.3103974,167.543683 C76.0286716,199.318382 81.4375029,231.09063 82.9760594,263.429743 C84.5239459,295.95627 87.5847869,333.471797 77.3653617,364.8 C82.4700158,332.993362 77.6100386,299.137673 76.7495339,267.133636 C76.3383193,251.855427 75.1466959,236.726588 73.5835089,221.537658 C72.0665915,206.803578 69.5883777,192.13966 67.2806022,177.52139 C66.156442,170.402029 64.9758205,163.293379 63.7737839,156.188618 C63.4149348,154.068904 63.2633493,147.778972 61.9731767,146.330902 C60.6746483,144.873297 54.0493852,144.279081 51.9693594,143.209578 C47.780902,141.055467 43.8410925,137.995709 40.3542587,134.762683 C33.6699528,128.565053 27.854943,120.467098 23.2652721,112.484354 C12.6459639,94.0135426 8.4003697,71.4724264 8.61495919,50.0808762 C8.6561898,45.9276038 15.0651114,1.20350459 12.4911854,0.587616749 C12.6461576,0.398461305 12.7927494,0.20315262 12.9309732,0 C14.8796557,3.40040286 16.7918778,6.82384979 18.6930389,10.253296 Z" id="Leaf"></path>
                        <path d="M197.13896,118.027218 C197.394059,117.643742 199.054347,114.976782 198.218278,115.147226 C199.920545,114.800197 195.876917,118.088599 200.118384,116.07085 C198.104506,118.053098 199.26678,120.628069 199.29366,123.295956 C199.337514,127.627421 198.642142,131.923367 197.859383,136.161895 C196.6225,142.861714 194.779879,149.375896 192.105348,155.607533 C186.276124,169.187687 176.377803,182.261066 164.626656,190.75128 C158.82544,194.943239 153.13999,196.370446 146.5237,198.300266 C142.344571,199.519459 142.013159,201.772494 139.794867,205.999019 C135.17655,214.801965 130.640481,223.573247 126.567535,232.673205 C121.704168,243.539514 116.983011,254.417799 112.52959,265.475395 C97.5268139,302.722317 85.3159453,341.310686 78.9031703,381.245902 C78.7461586,357.712201 83.969842,333.474503 90.5590134,311.042972 C95.3588284,294.699868 101.607286,278.94561 108.271876,263.350838 C109.886842,259.572821 112.334175,254.71301 113.019998,250.541916 C113.500212,247.61944 112.032057,244.808876 111.359854,241.730274 C108.739237,229.74163 108.926803,216.310483 111.228095,204.257736 C113.765445,190.967295 121.103346,184.79875 133.516353,182.916245 C138.056038,182.227644 143.826094,182.480021 147.988762,180.462694 C152.523926,178.265892 154.394749,171.04503 156.973609,166.409804 C163.90034,153.958608 172.130299,142.01715 181.580565,131.525985 C184.197254,128.620848 187.011259,125.940662 189.996605,123.456458 C191.879162,121.889064 195.856009,119.958036 197.13896,118.027218 Z" id="Leaf"></path>
                        <path d="M59.5525889,355.829508 L100.398665,355.829508 C103.160088,355.829508 105.398665,358.068084 105.398665,360.829508 C105.398665,361.063887 105.382185,361.297977 105.349346,361.530044 L102.771678,379.746406 C101.375777,389.611224 92.9320416,396.944262 82.9689508,396.944262 L76.9823026,396.944262 C67.0192119,396.944262 58.5754765,389.611224 57.1795758,379.746406 L54.6019072,361.530044 C54.2150118,358.795858 56.1178669,356.265722 58.8520529,355.878826 C59.0841204,355.845988 59.3182096,355.829508 59.5525889,355.829508 Z" id="Base"></path>
                    </g>
                    <g id="Maceta" transform="translate(32.000000, 369.000000)" fill="#F2F2F2">
                        <path d="M15.4177215,48.4556962 C15.4177215,69.7431274 17.0976047,87 39.6455696,87 C62.1935345,87 63.8734177,69.7431274 63.8734177,48.4556962" id="Base"></path>
                        <path d="M46.353417,35.1741665 C45.5269187,36.603205 44.7899627,38.0608242 44.1390143,39.5403256 C44.1160396,36.4933476 44.2845204,33.4240409 44.7446025,30.3127562 C45.5310424,24.9833358 46.7322042,19.6816031 47.8609075,14.3883552 C48.6720893,10.5844334 48.6208382,3.75184321 51.6994412,0.720495335 C52.5436123,0.0653705071 52.7468496,1.35061199 52.7468496,1.90838357 C52.7574533,2.02627925 52.7444932,-0.368253357 51.9250641,0.0488472497 C47.0544384,2.56440155 45.4762567,10.4741295 43.916926,14.4343524 C41.6418466,20.2148131 39.7060851,26.1238872 38.9090415,32.1379063 C38.7075715,33.6571528 38.5980001,35.1759528 38.5726691,36.6920733 C38.4071338,36.2865836 38.2516131,35.877968 38.0795978,35.473818 C35.2684432,28.8805917 31.4746806,22.4472391 26.743081,16.51405 C25.578443,15.0541979 10.9341658,0.649489986 9.78778975,2.85422841 C9.90089571,3.17442235 10.1377113,3.44013419 10.4988257,3.65136394 C10.5200331,3.67547897 10.5206222,3.66208173 10.5082512,3.62635577 C11.3683278,5.01564911 13.8136552,7.16143971 14.5753532,8.37880186 C16.4922637,11.4423031 17.9820814,14.6933656 19.4960519,17.8823543 C22.69483,24.6216105 25.6620943,31.428746 28.5386382,38.2501718 C29.2084376,39.839084 29.9065135,41.4190647 30.6187276,42.994133 C23.2768544,32.4045113 13.4825846,22.7906549 -1.42108547e-14,17.2870705 C4.60494447,19.6298004 7.62404905,24.037491 10.733874,27.4122547 C14.4846328,31.4827815 18.4350943,35.4438975 22.1929222,39.5099586 C26.6252623,44.3066155 31.8405077,49.35782 36.1037779,54.6658048 C40.2333239,63.3356026 44.2462293,72.0147785 46.7233678,81.1284714 C45.7083596,77.9796744 46.6438402,73.6282523 46.4700576,70.3236008 C46.3322097,67.6932768 46.0247028,65.0843884 45.6035009,62.4804124 C46.1242596,63.6549034 46.5731489,64.8302875 46.7763862,65.923502 C46.5908217,64.089867 46.3769808,62.2678429 46.1472343,60.4551969 C46.7369169,58.7582137 47.3159959,57.1746605 47.7071541,55.8702163 C49.7118395,49.1787436 52.0988467,42.6024871 55.349465,36.192803 C58.3573768,30.263633 61.8076979,24.4099342 65.5672931,18.7348651 C67.3210246,16.088911 69.0989091,13.4527816 70.8656007,10.8121864 C72.0219914,9.08349646 73.1230073,6.31562756 74.733,4.65928264 C64.3260729,14.1739995 52.9559778,23.7574888 46.353417,35.1741665" id="Fill-27"></path>
                    </g>
                </g>
                <g id="Group-2" transform="translate(87.000000, 228.000000)">
                    <g id="Group" transform="translate(110.000000, 9.000000)">
                        <g id="Bottom/Skinny-Jeans-1-Copy-3" transform="translate(0.000000, 96.293855)">
                            <polygon id="Leg" fill="#997659" points="69.5151515 0 97.3202525 74.0228396 115.969249 136.602911 123.333333 136.602911 94.8231163 3.03319394e-13"></polygon>
                            <path d="M62.6720071,0 C62.3590872,25.5108002 57.7955662,59.8569519 57.0664694,61.4471654 C56.5804048,62.5073077 39.8006726,75.9888644 6.72727273,101.891836 L12.0877306,107.490815 C51.1112785,85.2822674 71.5259614,72.696957 73.3317792,69.734884 C76.0405059,65.2917746 84.8591867,24.4057001 91.9393939,0 L62.6720071,0 Z" id="Leg" fill="#B28B67"></path>
                            <g id="Left-Shoe-Accessories/Shoe/Flat-Sneaker" transform="translate(20.766798, 113.337596) rotate(50.000000) translate(-20.766798, -113.337596) translate(2.924901, 101.344200)" fill="#E4E4E4">
                                <path d="M1.25504775,16.1257755 C0.808336092,17.4758877 0.584980261,18.51823 0.584980261,19.2528024 C0.584980261,20.3341788 0.760716641,21.9121758 1.1121894,23.9867935 C2.33593216,23.9867935 13.3339144,23.9867935 34.1061362,23.9867935 C34.9635319,21.0810977 34.4685934,19.512406 32.6213206,19.2807184 C30.7740478,19.0490309 29.239487,18.8398356 28.017638,18.6531326 L13.0853594,11.8290858 C12.5830433,11.5995275 11.9897419,11.8206413 11.7601836,12.3229574 C11.7537677,12.3369967 11.7476777,12.3511827 11.7419185,12.3655039 L10.9176113,14.4152804 L10.9176113,14.4152804 C9.20751982,15.2332043 7.81789298,15.6421663 6.74873075,15.6421663 C6.03288887,15.6421663 5.09228932,15.3979412 3.92693209,14.9094912 C2.90822698,14.4825093 1.73626605,14.9621956 1.30928405,15.9809007 C1.28934374,16.0284748 1.27125145,16.0768026 1.25504775,16.1257755 Z" id="shoe"></path>
                            </g>
                            <g id="Right-Shoe-Accessories/Shoe/Flat-Sneaker" transform="translate(112.121212, 118.687775)" fill="#E4E4E4">
                                <path d="M1.26971609,16.5363436 C0.815356599,17.9345334 0.588176852,19.012994 0.588176852,19.7717253 C0.588176852,20.8822481 0.764873534,22.5027771 1.1182669,24.6333122 C2.34869673,24.6333122 13.4067769,24.6333122 34.2925073,24.6333122 C35.1545882,21.6492988 34.6569451,20.038326 32.799578,19.8003938 C30.9422109,19.5624616 29.3992645,19.3476278 28.1707388,19.1558925 L13.1627908,12.1506831 C12.6623389,11.9170888 12.0672769,12.1334197 11.8336826,12.6338716 C11.8249944,12.6524853 11.8168817,12.6713622 11.8093562,12.6904755 L10.9772699,14.803817 L10.9772699,14.803817 C9.25783379,15.6437865 7.86061341,16.0637713 6.7856088,16.0637713 C6.06778427,16.0637713 5.1251836,15.8143062 3.9578068,15.3153761 L3.95780369,15.3153834 C2.94211574,14.8812842 1.76683105,15.352755 1.33273185,16.368443 C1.30922667,16.4234395 1.28820028,16.4794627 1.26971609,16.5363436 Z" id="shoe"></path>
                            </g>
                            <polygon id="Pant" fill="#B45B59" points="87.7127953 129.884735 123.333333 125.896279 96.9342749 0 65.030303 0"></polygon>
                            <path d="M13.4545455,96.3190817 L37.1392523,125.405951 C62.0858437,97.1370833 76.6297716,78.691642 80.771036,70.0696272 C84.9123005,61.4476123 88.6350864,38.0910699 91.9393939,0 L55.529728,0 C53.7247475,33.5108618 52.508065,51.0460049 51.8796806,52.6054293 C51.2512961,54.1648536 38.4429178,68.7360711 13.4545455,96.3190817 Z" id="Pant" fill="#E67270"></path>
                        </g>
                        <g id="Body/Long-Sleeve-1-Copy-3" transform="translate(24.666667, 0.000000)">
                            <path d="M19.3702528,94.0910316 L31.2251583,94.1390222 C23.9053012,118.463591 19.953666,131.370055 19.3702528,132.858414 C18.0575731,136.207222 20.8353798,141.307397 22.0232803,144.048194 C18.1543282,145.83034 18.5665692,139.230325 13.6859903,141.567709 C9.23122415,143.701165 5.84249465,147.566844 0.695656097,144.297707 C0.0628825392,143.895785 -0.630534188,142.382479 1.04484829,141.199911 C5.21883702,138.253701 11.2338077,133.097303 12.0465249,131.400034 C13.1548101,129.085506 15.5960527,116.649171 19.3702528,94.0910316 L19.3702528,94.0910316 Z M90.6994464,91.8150714 L106.769616,107.953147 C111.445443,110.006281 115.276617,112.273356 118.263138,114.754372 C118.934762,115.588326 119.665934,117.186224 116.505977,116.471188 C113.34602,115.756151 109.99098,115.150333 109.397072,116.208192 C108.803164,117.26605 110.553162,118.887064 109.455547,120.271528 C108.723803,121.194504 106.26289,118.258698 102.072809,111.46411 L85.3619583,101.322107 L90.6994464,91.8150714 Z" id="Skin" fill="#B28B67"></path>
                            <path d="M49.651407,42.8085117 L54.4497817,41.5041559 C64.7690132,62.7813657 81.1729304,81.4995782 103.661533,97.6587934 L89.6207696,119.198208 C66.4675133,95.4138477 51.2650872,70.1150334 49.651407,42.8085117 Z" id="Coat-Back" fill="#243044" transform="translate(76.656470, 80.351182) rotate(5.000000) translate(-76.656470, -80.351182) "></path>
                            <path d="M31.3939394,107.490815 L74,107.490815 C64.1291549,81.0773745 59.1937323,58.6394698 59.1937323,40.1771013 L46.3415885,38.0696638 C36.2410112,55.9476849 33.3885816,77.9591488 31.3939394,107.490815 Z" id="Shirt" fill="#DDE3E9"></path>
                            <g id="Head/Front-Copy-3" transform="translate(35.878788, 0.000000)">
                                <path d="M20.5141361,0 C26.578489,-1.11400355e-15 31.6375014,4.3043745 32.8026655,10.0246158 C34.7365969,17.0474552 37.4012569,34.0273551 34.7927146,36.6445961 L18.6286661,36.6445961 L18.6201356,36.4896521 C12.5925741,35.5765734 7.97306397,30.3730915 7.97306397,24.0906652 L7.97306397,12.5410722 C7.97306397,5.61482927 13.5878932,1.27233018e-15 20.5141361,0 Z" id="Hair-Back" fill="#243044"></path>
                                <g id="Head" transform="translate(9.966330, 2.035811)" fill="#B28B67">
                                    <path d="M21.7228072,5.34923512 C25.0229784,11.6748498 24.6308323,27.7202959 20.365655,28.8508597 C18.6648006,29.3017025 15.0415791,28.1974026 11.3538859,25.9117947 L13.6681097,42.7520288 L0,42.7520288 L4.70426918,20.1975754 C2.08066574,17.0302221 0.305089198,13.1487716 0.601838951,8.79957038 C1.45698075,-3.73349402 18.422636,-0.976379536 21.7228072,5.34923512 Z"></path>
                                </g>
                                <path d="M21.1259303,0 C27.9211882,0 30.0660524,3.15737071 31.8922559,5.83802408 C30.5265918,10.5172448 25.2266103,11.2108699 20.5174796,14.1277787 C19.9630369,13.676986 19.2553081,13.4071317 18.4844608,13.4071317 C16.7019918,13.4071317 15.2570152,14.8500329 15.2570152,16.6299417 C15.2570152,18.4098505 16.7019918,19.8527517 18.4844608,19.8527517 L18.6307376,19.8481302 C19.2800688,26.8081359 19.0202371,34.7576964 17.0862543,36.6445961 L0.0688142641,36.6445961 C-0.87934692,20.1944116 8.28413016,26.5646594 8.28413016,11.0763835 C8.85542831,10.5189937 9.3952593,9.96730495 9.92942651,9.49152591 L9.91053285,9.03599778 C12.8572926,3.01199926 16.5957584,0 21.1259303,0 Z" id="Hair-Front" fill="#243044"></path>
                            </g>
                            <path d="M46.8196272,38.0696638 C47.8442495,38.1067806 49.4048808,38.1736539 51.5015211,38.2702837 L51.5015211,38.2702837 L54.671295,47.7995679 C55.0065868,59.4179931 56.96464,82.8322549 60.5454545,118.042353 L60.5454545,118.042353 L32.0386269,118.041873 C32.1133558,120.473847 32.2365791,122.928539 32.4082969,125.405951 L32.4082969,125.405951 L11.2121212,125.405951 C14.3826952,87.7764661 25.961235,58.6643703 45.9477406,38.0696638 L45.9477406,38.0696638 L45.9581212,38.0796638 L45.9633395,38.0696638 Z" id="Coat-Front" fill="#243044"></path>
                            <path d="M40.3636364,118.687775 L31.4981865,118.687417 C31.1100877,107.780665 31.8056143,97.3302963 33.5847662,87.3363122 C34.4873784,102.496346 36.7469818,112.946531 40.3636364,118.687775 Z" id="Shade" fill-opacity="0.1" fill="#000000"></path>
                            <polygon id="Light" fill-opacity="0.2" fill="#FFFFFF" points="40.3636364 100.772639 53.8181818 91.8150714 53.8181818 100.772639"></polygon>
                        </g>
                    </g>
                    <g id="Group-4" transform="translate(248.000000, 7.000000)">
                        <g id="Head/Front-Copy-2" transform="translate(50.000000, 0.000000)">
                            <g id="Head" transform="translate(24.786063, 7.613426)" fill="#B28B67">
                                <path d="M20.778533,4.76304943 C23.9352482,10.3954837 23.5601484,24.6826204 19.4803752,25.6892935 C17.853374,26.0907517 14.387385,25.1073455 10.8598098,23.0719939 L13.0739671,38.0671296 L0,38.0671296 L4.50133989,17.9860177 C1.99092544,15.1654316 0.29176832,11.7086919 0.575677461,7.83528631 C1.39364689,-3.32436623 17.6218178,-0.869384854 20.778533,4.76304943 Z"></path>
                            </g>
                            <path d="M42.2489705,0 C45.24044,0 47.6655052,2.52492362 47.6655052,5.63957476 C47.6655052,8.65054478 45.3992049,11.1103957 42.545761,11.2708273 C40.9125873,11.7952146 38.812939,12.1808049 36.4841755,12.3434027 C36.7095225,13.2270059 36.8324359,14.23245 36.8324359,15.3687223 C36.8324359,16.371436 36.7261485,17.4348635 36.5304358,18.5146306 C36.0250001,17.8898794 35.3504595,17.4826818 34.665822,17.4826818 C32.749687,17.4826818 31.4159012,19.1238821 31.4159012,20.8664266 C31.4159012,23.0778577 32.6419994,24.6777025 34.4319014,24.8058322 C32.8201714,28.0275825 30.5906802,30.4537037 28.3633254,30.4537037 C24.1326243,30.4537037 21.1244853,24.5644534 21.1244853,18.232502 C21.1244853,18.0103878 21.1287054,17.7897489 21.1370323,17.570755 C16.6617579,20.7672065 13.2126764,27.0699588 7.29105949,27.0699588 C-0.765232226,27.0699588 -3.96472153,10.1512346 7.29105949,10.1512346 C14.9461503,10.1512346 18.7114891,11.3133507 21.9565674,13.0318225 C22.5962947,11.1524418 23.5729449,9.57213848 24.7672355,8.46896136 C25.0556794,8.13097805 25.4992823,7.80750444 26.0717301,7.50781822 C26.4153721,7.31254138 26.7705572,7.15375346 27.1354875,7.03390481 C29.0927295,6.28494708 31.9275137,5.75672512 35.0940527,5.64157442 C35.6853809,5.62007809 36.2661332,5.6137919 36.8326785,5.62172412 C36.8418435,2.51514027 39.2633022,0 42.2489705,0 Z" id="hair" fill="#243044"></path>
                        </g>
                        <g id="Bottom/Skinny-Jeans-1-Copy-2" transform="translate(0.000000, 88.000000)">
                            <path d="M53.4210526,55.9994401 C66.250565,59.4780742 77.3194805,61.2173913 86.6277992,61.2173913 C95.9361179,61.2173913 104.582115,58.5388738 112.565789,53.1818389 C100.010945,49.6113376 89.6714707,47.826087 81.5473676,47.826087 C73.4232645,47.826087 64.0478262,50.550538 53.4210526,55.9994401 Z" id="Skirt-Shadow" fill="#1F28CF"></path>
                            <path d="M96.875297,65.0026564 C96.7524491,64.8164561 96.6487037,64.6139076 96.5664152,64.3944997 C94.8634375,59.8538083 67.5859273,10.8688123 64.8684211,1.91304348 L95.5790497,1.91304348 C97.6452081,8.72224101 106.944786,51.4532017 108.253542,59.9786582 C112.38291,73.4266426 120.884867,116.979754 121.970211,119.996981 C123.111975,123.171052 116.687648,126.477613 114.975715,122.575486 C112.251742,116.366544 105.76133,99.1865116 102.871418,88.6965037 C100.162132,78.8621438 97.9560493,70.0146073 96.875297,65.0026564 Z" id="Leg" fill="#997659"></path>
                            <path d="M72.9453214,72.1777778 C60.4592074,75.4105946 14.7876354,81.2549553 11.6534521,82.1716284 C8.42935529,83.1145991 5.60243933,76.3068167 9.58759708,74.8321356 C15.9286559,72.4856691 33.4011432,67.0640578 43.9947754,64.8516053 C52.5156516,63.0720425 60.2910557,61.6199216 65.5112572,60.7695755 C65.0690139,45.748126 63.0474065,9.6989508 64.3724587,1.91304348 L91.5789474,1.91304348 C90.3083114,9.37920508 79.5670688,63.8567774 77.5706556,69.3098284 C76.9370919,71.2566042 75.0466699,72.1169354 72.9453214,72.1777778 L72.9453214,72.1777778 Z" id="Leg" fill="#B28B67"></path>
                            <g id="Left-Shoe-Accessories/Shoe/Flat-Sneaker" transform="translate(13.694444, 87.639344) rotate(80.000000) translate(-13.694444, -87.639344) translate(-2.685185, 76.819672)" fill="#E4E4E4">
                                <path d="M1.08901158,14.7380356 C0.721028542,15.8640399 0.537037021,16.7409089 0.537037021,17.3686423 C0.537037021,18.3441906 0.69837057,19.7677583 1.02103767,21.6393452 C2.14448612,21.6393452 12.2411065,21.6393452 31.3108989,21.6393452 C32.098025,19.0180129 31.6436501,17.60284 29.9477743,17.3938264 C28.2518985,17.1848128 26.8431057,16.9960902 25.7213958,16.8276587 L12.0818093,10.7023776 C11.5779959,10.4761245 10.98616,10.7011316 10.7599069,11.204945 C10.7553121,11.2151765 10.7508898,11.2254845 10.7466419,11.2358648 L10.0228364,13.0045405 L10.0228364,13.0045405 C8.45289892,13.742419 7.17716175,14.1113582 6.19562487,14.1113582 C5.56527818,14.1113582 4.7450965,13.9086549 3.73507982,13.5032483 L3.73508465,13.5032363 C2.71000163,13.0917823 1.54545828,13.5892268 1.13400426,14.6143099 C1.11765301,14.6550468 1.10264732,14.6963111 1.08901158,14.7380356 Z" id="shoe"></path>
                            </g>
                            <g id="Right-Shoe-Accessories/Shoe/Flat-Sneaker" transform="translate(112.565789, 109.043478)" fill="#E4E4E4">
                                <path d="M1.08426408,15.615301 C0.715893618,16.8193852 0.531708389,17.7562393 0.531708389,18.4258635 C0.531708389,19.4607929 0.691441142,20.9710125 1.01090665,22.956522 C2.12320793,22.956522 12.1196468,22.956522 31.0002233,22.956522 C31.7795394,20.1756305 31.329673,18.6743166 29.6506241,18.4525804 C27.9715753,18.2308443 26.5767609,18.0306343 25.4661809,17.8519504 L12.0076613,11.3758317 C11.5099953,11.1363593 10.9124266,11.3456666 10.6729542,11.8433325 C10.6608611,11.8684642 10.6498247,11.8940907 10.6398738,11.9201449 L9.92338697,13.7961208 L9.92338697,13.7961208 C8.36902689,14.5789136 7.10594794,14.97031 6.13415014,14.97031 C5.52634551,14.97031 4.74027178,14.7663461 3.77592897,14.3584183 L3.77592366,14.3584309 C2.75863425,13.9281061 1.58511109,14.4039349 1.15478631,15.4212243 C1.12795272,15.484659 1.10441394,15.5494376 1.08426408,15.615301 Z" id="shoe"></path>
                            </g>
                            <path d="M63.9839894,2.58276654 C76.0209789,-0.860922181 87.4101189,-0.860922181 98.1514092,2.58276654 C101.888471,19.6323942 110.968964,26.3994046 112.565789,52.5393201 C94.4143477,61.557974 71.9919784,46.1073167 53.3066707,54.9023195 C47.9680114,42.6003083 55.4421345,12.9737839 63.9839894,2.58276654 Z" id="Skirt" fill="#0F79FF"></path>
                        </g>
                        <g id="Body/Long-Sleeve-1-Copy-2" transform="translate(15.000000, 35.000000)">
                            <path d="M26.5432864,43.8829787 L37.5296807,46.0889157 C26.4809868,66.9257872 20.5557708,77.9693413 19.7540326,79.2195778 C17.9501216,82.0326099 19.6332071,87.1880761 20.2549318,89.9029801 C16.3545794,90.8217618 17.8927586,84.8810134 12.9569379,86.1213876 C8.45174977,87.2535437 4.63189345,90.1590596 0.430989997,86.2405077 C-0.0854863976,85.7587448 -0.463571538,84.2528903 1.29735811,83.4805447 C5.68447605,81.5563503 12.1660733,77.953335 13.2170648,76.5544992 C14.6502796,74.6469365 19.0923534,63.7564297 26.5432864,43.8829787 Z M135.207734,27.2022722 C133.480333,29.755511 131.776836,32.5197523 132.467061,33.4145757 C133.157285,34.309399 135.156714,33.3217577 135.946628,34.776916 C136.473237,35.7470215 133.102919,36.9074703 125.835674,38.2582624 L111.286194,49.5468471 L105.083106,41.5050156 L124.509845,32.8714135 C127.912957,29.4396822 131.199146,26.8314077 134.368413,25.04659 C135.316084,24.7412732 136.935136,24.6490333 135.207734,27.2022722 Z" id="Skin" fill="#B28B67"></path>
                            <path d="M64.9221006,5.30747399 L69.4647732,4.10767622 C80.3690355,13.0374507 86.5303494,36.2439421 93.4982628,38.7774458 C100.086143,41.1727711 108.80952,37.5339108 119.138288,32.747369 L123.047303,39.8071231 C114.279553,51.2077141 94.414031,61.9293978 85.6002375,57.571895 C71.5088137,50.6051537 65.8772976,21.8112723 64.9221006,5.30747399 Z" id="Coat-Back" fill="#B45B59" transform="translate(93.984702, 31.336326) rotate(5.000000) translate(-93.984702, -31.336326) "></path>
                            <path d="M47.2222222,61.2765957 C65.4027975,61.2765957 78.7760476,61.2765957 87.3419725,61.2765957 C89.1752405,61.2765957 88.8297961,58.56303 88.5647861,57.1937499 C85.5062506,41.3906023 73.5668878,24.3555738 73.5668878,1.86019098 L61.9944632,0 C52.4225813,15.7805546 49.1124586,35.2096125 47.2222222,61.2765957 Z" id="Shirt" fill="#DDE3E9"></path>
                            <path d="M63.8068527,-9.9475983e-14 L66.3729774,0 C77.0653235,36.5680612 80.013014,60.9334317 75.216049,73.0961115 L75.216049,73.0961115 L38.0473228,73.0961115 C38.6354086,64.1958993 40.5211258,54.7835655 43.1039375,45.6064223 C34.6863265,60.841181 27.6106753,71.8091094 21.8772481,78.5106383 L13.2222222,76.809838 C18.7973962,42.1199678 34.942356,16.5166884 61.6571017,-9.9475983e-14 L63.8068527,-9.9475983e-14 Z" id="Coat-Front" fill="#E67270"></path>
                        </g>
                    </g>
                    <g id="Group-3">
                        <g id="Bottom/Skinny-Jeans-1-Copy" transform="translate(17.000000, 97.000000)">
                            <polygon id="Leg" fill="#997659" points="24.4146341 0 46.1248214 72.4639372 56.3362091 126.870968 66.5853659 126.870968 56.3544754 2.89834705e-29"></polygon>
                            <path d="M16.5975276,0 C18.0690511,37.3070193 17.4887037,57.6552814 17.1593591,61.0447863 C16.8300146,64.4342912 14.9603012,87.1349225 2.2195122,126.870968 L12.5745485,126.870968 C29.4476282,88.7510219 35.3378587,66.0503906 37.2730732,61.0447863 C39.2082878,56.039182 44.9238399,35.6909199 53.2682927,0 L16.5975276,0 Z" id="Leg" fill="#B28B67"></path>
                            <path d="M24.4146341,0 C30.0539204,25.0990856 39.8074687,65.1636018 53.6752791,120.193548 L68.6449404,120.193548 C69.7506206,63.7105712 65.0471087,26.5353231 56.9018007,0 L24.4146341,0 Z" id="Pant" fill="#243044"></path>
                            <path d="M14.5585688,0 C16.0720475,38.4054993 12.1497715,76.2421903 0,122.419355 L16.3160841,122.419355 C34.0683885,83.7626728 46.7920367,46.1126919 55.4878049,0 L14.5585688,0 Z" id="Pant" fill="#243044"></path>
                            <g id="Left-Shoe-Accessories/Shoe/Flat-Simple" transform="translate(0.000000, 115.741935)" fill="#191847">
                                <path d="M0,20.5887094 L0.577755868,11.6854837 C3.96043526,12.6311316 8.19731163,12.2601638 13.288385,10.5725805 C18.5554653,14.1387025 25.1344585,16.6165318 33.0253648,18.0060685 C34.1131871,18.1976408 34.8397541,19.2347859 34.6481953,20.3226105 C34.6350026,20.3975292 34.6175463,20.4716343 34.5959113,20.5445644 L34.0875962,22.2580643 L34.0875962,22.2580643 L13.288385,22.2580643 L1.15551174,22.2580643 L0,20.5887094 Z" id="Shoe"></path>
                            </g>
                            <g id="Right-Shoe-Accessories/Shoe/Flat-Simple" transform="translate(55.487805, 115.741935)" fill="#191847">
                                <path d="M0,20.5887094 L0.577755868,11.6854837 C3.96043526,12.6311316 8.19731163,12.2601638 13.288385,10.5725805 C18.5554653,14.1387025 25.1344585,16.6165318 33.0253648,18.0060685 C34.1131871,18.1976408 34.8397541,19.2347859 34.6481953,20.3226105 C34.6350026,20.3975292 34.6175463,20.4716343 34.5959113,20.5445644 L34.0875962,22.2580643 L34.0875962,22.2580643 L13.288385,22.2580643 L1.15551174,22.2580643 L0,20.5887094 Z" id="Shoe"></path>
                            </g>
                        </g>
                        <g id="Body/Long-Sleeve-1-Copy">
                            <path d="M19.8544022,90.4908107 L32.00563,90.5407094 C24.5028198,115.829265 20.4524171,129.247215 19.8544218,130.794558 C18.5089323,134.276079 21.356175,139.578378 22.5737693,142.427793 C18.6081108,144.280565 19.0306527,137.418989 14.0280812,139.849002 C9.46196589,142.067005 5.98853449,146.085881 0.713045154,142.687184 C0.0644547401,142.269334 -0.646295226,140.696054 1.07096411,139.466621 C5.34928336,136.403654 11.5146001,131.042909 12.347631,129.278378 C13.4836175,126.872124 15.9858745,113.942935 19.8544022,90.4908107 L19.8544022,90.4908107 Z M91.0693009,90 L109.617265,104.220816 C114.647854,105.638112 118.850749,107.401469 122.22595,109.510885 C123.023231,110.269417 123.98682,111.805571 120.680303,111.540085 C117.373786,111.274599 113.88439,111.150612 113.428155,112.328149 C112.97192,113.505686 114.972845,114.913891 114.050595,116.502697 C113.435762,117.561901 110.531043,114.905987 105.336438,108.534954 L86.9690886,100.582597 L91.0693009,90 Z" id="Skin" fill="#B28B67"></path>
                            <path d="M51.3491027,39.4281081 L56.2686531,38.0956329 C76.2757763,53.2018872 86.7039618,84.673193 110.92325,99.7092253 L106.071949,107.26964 C66.1937791,105.620931 52.9906138,67.2757765 51.3491027,39.4281081 Z" id="Coat-Back" fill="#E0BD49" transform="translate(81.136177, 72.682636) rotate(5.000000) translate(-81.136177, -72.682636) "></path>
                            <path d="M31.3090909,105.75 C51.8557041,105.75 66.9693621,105.75 76.6500649,105.75 C78.7219162,105.75 78.3315153,102.56156 78.0320167,100.952656 C74.5754403,82.3839577 61.0822771,62.3677992 61.0822771,35.9357244 L48.0038058,33.75 C37.1862299,52.2921517 33.4453246,75.1212947 31.3090909,105.75 Z" id="Shirt" fill="#DDE3E9"></path>
                            <g id="Head/Front-Copy" transform="translate(42.490909, 0.000000)">
                                <g id="Head" transform="translate(2.096591, 4.108696)" fill="#B28B67">
                                    <path d="M28.5610653,5.39794219 C32.900118,11.7811543 32.3845257,27.9727011 26.7766867,29.1135591 C24.5403113,29.5685271 19.7761926,28.454054 14.9274066,26.1474283 L17.9707792,43.1413043 L0,43.1413043 L6.18571774,20.3820039 C2.7359052,17.1857152 0.401108932,13.2687353 0.791295591,8.87969424 C1.91563282,-3.76748908 24.2220126,-0.985269889 28.5610653,5.39794219 Z"></path>
                                </g>
                                <path d="M2.16796656,8.11374156 C6.19695332,-5.72660247 28.9944269,2.86632606 33.3809691,0.531032043 C34.3398355,5.55601484 31.2473895,9.60785063 20.3751805,8.82533311 C17.9751528,9.94569965 16.2683105,12.0474976 14.2135687,14.8046209 C13.7135788,14.6401039 13.1685845,14.549773 12.5983559,14.549773 C10.1585816,14.549773 8.18075367,16.2034004 8.18075367,18.2432532 C8.18075367,19.2788447 8.69051609,20.214891 9.51169001,20.8855545 C8.49025784,22.0907962 7.34432601,23.3513897 6.0311383,24.6521739 C1.18286397,22.2202043 -2.43593715,15.1800247 2.02462922,8.33290412 Z" id="Hair" fill="#243044"></path>
                            </g>
                            <path d="M45.9738122,33.6804593 C46.3955154,33.6804593 46.7817429,33.7095337 47.1324948,33.7676823 L51.0317847,34.0123393 C62.1078228,75.2901402 65.2427413,102.967425 60.4365403,117.044195 L60.2884672,117.4666 L26.2993305,117.467191 C24.2856074,122.630561 22.3586413,126.97483 20.5184323,130.5 L20.5184323,130.5 L11.2570681,130.5 C10.3854314,99.5092992 17.086064,73.205931 31.3589661,51.5898953 C29.5500015,51.019663 28.116906,49.6858111 27.0604877,47.5896974 C22.507724,38.5562391 24.1519401,33.5826513 29.0174006,31.9478048 C33.8828611,30.3129584 38.221833,33.6804593 45.9738122,33.6804593 Z" id="Coat-Front" fill="#F9DD82"></path>
                            <path d="M42.4909091,114.75 L29.0724181,114.750626 C31.5715042,109.687247 34.1961962,103.686803 36.9464941,96.749297 C38.0832432,105.016753 39.9315086,111.017002 42.4909091,114.75 Z" id="Shade" fill-opacity="0.1" fill="#000000"></path>
                        </g>
                    </g>
                </g>
            </g>
        </g>
    </g>
</svg>