<svg id="Capa_1" enable-background="new 0 0 512 512" height="512" viewBox="0 0 512 512" width="512" xmlns="http://www.w3.org/2000/svg"><path fill="#77a2ea" d="m376 376c8.291 0 15-6.709 15-15s-6.709-15-15-15h-60c-8.291 0-15 6.709-15 15s6.709 15 15 15z"/><path fill="#77a2ea" d="m106 406c-8.291 0-15 6.709-15 15s6.709 15 15 15h60c8.291 0 15-6.709 15-15s-6.709-15-15-15z"/><path fill="#77a2ea" d="m271 361c0-8.291-6.709-15-15-15h-150c-8.291 0-15 6.709-15 15s6.709 15 15 15h150c8.291 0 15-6.709 15-15z"/><path fill="#77a2ea" d="m467 466h-30c-8.291 0-16 6.709-16 15s7.709 15 16 15h30c24.814 0 45-20.186 45-45s-20.186-45-45-45h-241c-8.291 0-15 6.709-15 15s6.709 15 15 15h241c8.276 0 15 6.724 15 15s-6.724 15-15 15z"/><path fill="#77a2ea" d="m279.555 139.838c-7.574-2.534-15.513-3.838-23.555-3.838-36.226 0-66.533 25.825-73.491 60.015-34.717-.909-61.509 26.381-61.509 59.985 0 33.091 26.909 60 60 60h271c33.091 0 60-26.909 60-60 0-22.749-12.979-43.169-32.461-53.291 1.641-7.295 2.461-14.561 2.461-21.709 0-57.891-48.109-105-106-105-42.817 0-80.259 25.503-96.445 63.838z"/><path fill="#77a2ea" d="m61 256h30c0-43.301 29.033-78.545 69.082-87.686 16.597-37.133 53.965-62.314 95.918-62.314 2.549 0 5.098.088 7.632.278 16.978-25.714 42.292-44.412 71.375-53.676-19.269-22.226-47.355-36.602-79.007-36.602-42.817 0-80.259 25.503-96.445 63.838-7.574-2.534-15.513-3.838-23.555-3.838-36.226 0-66.533 25.825-73.491 60.015-34.717-.909-62.509 26.381-62.509 59.985 0 33.091 27.909 60 61 60z"/></svg>
