<?xml version="1.0" encoding="UTF-8"?>
<svg width="45px" height="45px" viewBox="0 0 45 45" version="1.1" xmlns="http://www.w3.org/2000/svg" xmlns:xlink="http://www.w3.org/1999/xlink">
    <!-- Generator: Sketch 57.1 (83088) - https://sketch.com -->
    <title>Group 19</title>
    <desc>Created with Sketch.</desc>
    <g id="Page-1" stroke="none" stroke-width="1" fill="none" fill-rule="evenodd">
        <g id="01_mapa" transform="translate(-172.000000, -375.000000)" fill-rule="nonzero">
            <g id="Group-19" transform="translate(172.000000, 375.000000)">
                <circle id="Oval" fill="#5DACFF" cx="22.5" cy="22.5" r="22.5"></circle>
                <g id="021-placeholder-1" transform="translate(13.000000, 10.000000)" fill="#FFFFFF">
                    <path d="M16.2743703,2.66709279 C14.5743893,0.947276147 12.3140058,0 9.91000161,0 C7.50552808,0 5.24561396,0.947276147 3.54563287,2.66709279 C0.399588356,5.84937086 0.0086208661,11.8369158 2.69892777,15.4645799 L9.91000161,26 L17.1102804,15.4792995 C19.8113824,11.8369158 19.4204149,5.84937086 16.2743703,2.66709279 Z M9.99307634,12.3454535 C8.1818596,12.3454535 6.70763525,10.8540278 6.70763525,9.02167759 C6.70763525,7.18932739 8.1818596,5.69790164 9.99307634,5.69790164 C11.8042931,5.69790164 13.2785174,7.18932739 13.2785174,9.02167759 C13.2785174,10.8540278 11.8042931,12.3454535 9.99307634,12.3454535 Z" id="Shape"></path>
                </g>
            </g>
        </g>
    </g>
</svg>